<?xml version="1.0" encoding="UTF-8" standalone="no"?>
<svg
   xmlns:dc="http://purl.org/dc/elements/1.1/"
   xmlns:cc="http://creativecommons.org/ns#"
   xmlns:rdf="http://www.w3.org/1999/02/22-rdf-syntax-ns#"
   xmlns:svg="http://www.w3.org/2000/svg"
   xmlns="http://www.w3.org/2000/svg"
   xmlns:xlink="http://www.w3.org/1999/xlink"
   xmlns:sodipodi="http://sodipodi.sourceforge.net/DTD/sodipodi-0.dtd"
   xmlns:inkscape="http://www.inkscape.org/namespaces/inkscape"
   width="512mm"
   height="512mm"
   viewBox="0 0 512 512"
   version="1.1"
   id="svg205"
   inkscape:version="1.0.1 (3bc2e813f5, 2020-09-07)"
   sodipodi:docname="HSWP-Coat.svg"
   inkscape:export-filename="I:\Data\Commom Files\Haer Socialist Republic\HSWP-Coat.png"
   inkscape:export-xdpi="96"
   inkscape:export-ydpi="96">
  <defs
     id="defs199">
    <linearGradient
       id="G"
       gradientUnits="userSpaceOnUse"
       x1="-59.60672"
       x2="-27.060446"
       y1="773.38019"
       y2="780.75696">
      <stop
         offset="0"
         stop-color="#ff2a2a"
         id="stop7048" />
      <stop
         offset=".05"
         stop-color="#f00"
         id="stop7050" />
      <stop
         offset=".09968"
         stop-color="#bf0000"
         id="stop7052" />
      <stop
         offset=".20984"
         stop-color="#800000"
         id="stop7054" />
      <stop
         offset=".31999999"
         stop-color="#800000"
         id="stop7056" />
      <stop
         offset=".5"
         stop-color="#f00"
         id="stop7058" />
      <stop
         offset=".68692356"
         stop-color="#bf0000"
         id="stop7060" />
      <stop
         offset="1"
         stop-color="#800000"
         id="stop7062" />
    </linearGradient>
    <linearGradient
       id="d">
      <stop
         offset="0"
         id="stop6957" />
      <stop
         offset="1"
         stop-color="#d40000"
         id="stop6959" />
    </linearGradient>
    <linearGradient
       id="J"
       gradientUnits="userSpaceOnUse"
       x1="-35.09375"
       x2="88.481438"
       y1="686.95245"
       y2="686.95245">
      <stop
         offset="0"
         stop-color="#f00"
         id="stop7067" />
      <stop
         offset=".34999999"
         stop-color="#af0000"
         id="stop7069" />
      <stop
         offset=".5"
         stop-color="#af0000"
         id="stop7071" />
      <stop
         offset=".64999998"
         stop-color="#af0000"
         id="stop7073" />
      <stop
         offset="1"
         stop-color="#f00"
         id="stop7075" />
    </linearGradient>
    <linearGradient
       id="K"
       gradientUnits="userSpaceOnUse"
       x1="-22.426394"
       x2="19.522636"
       xlink:href="#L"
       y1="676.30481"
       y2="687.88715" />
    <linearGradient
       id="L">
      <stop
         offset="0"
         stop-color="#f00"
         id="stop7079" />
      <stop
         offset=".17063613"
         stop-color="#800000"
         stop-opacity=".782913"
         id="stop7081" />
      <stop
         offset=".33380622"
         stop-color="#d40000"
         id="stop7083" />
      <stop
         offset=".49697629"
         stop-color="#d40000"
         id="stop7085" />
      <stop
         offset=".66185534"
         stop-color="#800000"
         stop-opacity=".784314"
         id="stop7087" />
      <stop
         offset=".82673442"
         stop-color="#800000"
         stop-opacity=".784314"
         id="stop7089" />
      <stop
         offset="1"
         stop-color="#af0000"
         id="stop7091" />
    </linearGradient>
    <linearGradient
       id="M"
       gradientTransform="matrix(-1,0,0,1,53.375,0)"
       gradientUnits="userSpaceOnUse"
       x1="-22.426394"
       x2="19.522636"
       xlink:href="#L"
       y1="676.30481"
       y2="687.88715" />
    <linearGradient
       id="N"
       gradientUnits="userSpaceOnUse"
       x1="157.25725"
       x2="248.65468"
       xlink:href="#l"
       y1="993.44647"
       y2="993.44647" />
    <linearGradient
       id="l">
      <stop
         offset="0"
         stop-color="#d40000"
         id="stop7003" />
      <stop
         offset=".05412371"
         stop-color="#f00"
         id="stop7005" />
      <stop
         offset=".30800298"
         stop-color="#d40000"
         id="stop7007" />
      <stop
         offset=".53620028"
         stop-color="#f00"
         id="stop7009" />
      <stop
         offset=".90625"
         stop-color="#f00"
         id="stop7011" />
      <stop
         offset=".9375"
         stop-color="#f00"
         id="stop7013" />
      <stop
         offset="1"
         stop-color="#f00"
         id="stop7015" />
    </linearGradient>
    <linearGradient
       inkscape:collect="always"
       xlink:href="#G"
       id="linearGradient13967"
       gradientUnits="userSpaceOnUse"
       x1="-59.60672"
       y1="773.38019"
       x2="-27.060446"
       y2="780.75696"
       gradientTransform="translate(-5.3177365,0.66978115)" />
    <linearGradient
       inkscape:collect="always"
       xlink:href="#d"
       id="linearGradient13969"
       gradientUnits="userSpaceOnUse"
       x1="-75.46875"
       y1="746.86407"
       x2="-19.620535"
       y2="760.43555"
       gradientTransform="translate(-5.3177365,0.66978115)" />
    <linearGradient
       inkscape:collect="always"
       xlink:href="#d"
       id="linearGradient13971"
       gradientUnits="userSpaceOnUse"
       x1="-45.366074"
       y1="773.38019"
       x2="-2.59375"
       y2="783.33948"
       gradientTransform="translate(-5.3177365,0.66978115)" />
    <linearGradient
       inkscape:collect="always"
       xlink:href="#G"
       id="linearGradient9241"
       gradientUnits="userSpaceOnUse"
       x1="-59.60672"
       y1="773.38019"
       x2="-27.060446"
       y2="780.75696"
       gradientTransform="translate(5.3177365,0.66978115)" />
    <linearGradient
       inkscape:collect="always"
       xlink:href="#d"
       id="linearGradient9245"
       gradientUnits="userSpaceOnUse"
       x1="-45.366074"
       y1="773.38019"
       x2="-2.59375"
       y2="783.33948"
       gradientTransform="translate(5.3177365,0.66978115)" />
    <linearGradient
       id="J-2"
       gradientUnits="userSpaceOnUse"
       x1="-35.09375"
       x2="88.481438"
       y1="686.95245"
       y2="686.95245"
       gradientTransform="matrix(1.9709148,0,0,2.1237659,207.38465,-1073.7261)">
      <stop
         offset="0"
         stop-color="#f00"
         id="stop7067-6" />
      <stop
         offset=".34999999"
         stop-color="#af0000"
         id="stop7069-6" />
      <stop
         offset=".5"
         stop-color="#af0000"
         id="stop7071-6" />
      <stop
         offset=".64999998"
         stop-color="#af0000"
         id="stop7073-4" />
      <stop
         offset="1"
         stop-color="#f00"
         id="stop7075-2" />
    </linearGradient>
    <linearGradient
       id="K-1"
       gradientUnits="userSpaceOnUse"
       x1="-22.426394"
       x2="19.522636"
       xlink:href="#L"
       y1="676.30481"
       y2="687.88715"
       gradientTransform="matrix(1.9709148,0,0,2.1237659,207.38465,-1073.7261)" />
    <linearGradient
       id="M-4"
       gradientTransform="matrix(-1.9709148,0,0,2.1237659,312.58223,-1073.7261)"
       gradientUnits="userSpaceOnUse"
       x1="-22.426394"
       x2="19.522636"
       xlink:href="#L"
       y1="676.30481"
       y2="687.88715" />
    <linearGradient
       id="N-3"
       gradientUnits="userSpaceOnUse"
       x1="157.25725"
       x2="248.65468"
       xlink:href="#l"
       y1="993.44647"
       y2="993.44647"
       gradientTransform="matrix(1.9709148,0,0,2.1237659,-228.11002,-1683.0418)" />
    <linearGradient
       inkscape:collect="always"
       xlink:href="#d"
       id="linearGradient9243"
       gradientUnits="userSpaceOnUse"
       x1="-75.46875"
       y1="746.86407"
       x2="-19.620535"
       y2="760.43555"
       gradientTransform="matrix(-1.9709148,0,0,2.1237659,312.60724,-1158.6768)" />
    <linearGradient
       id="K-1-5"
       gradientUnits="userSpaceOnUse"
       x1="-22.426394"
       x2="19.522636"
       xlink:href="#L"
       y1="676.30481"
       y2="687.88715"
       gradientTransform="matrix(1.9709148,0,0,2.1237659,207.38465,-1073.7261)" />
  </defs>
  <sodipodi:namedview
     id="base"
     pagecolor="#ffffff"
     bordercolor="#666666"
     borderopacity="1.0"
     inkscape:pageopacity="0.0"
     inkscape:pageshadow="2"
     inkscape:zoom="0.49497475"
     inkscape:cx="708.73918"
     inkscape:cy="1265.8407"
     inkscape:document-units="mm"
     inkscape:current-layer="layer1"
     inkscape:document-rotation="0"
     showgrid="false"
     inkscape:window-width="1920"
     inkscape:window-height="1017"
     inkscape:window-x="-8"
     inkscape:window-y="-8"
     inkscape:window-maximized="1" />
  <metadata
     id="metadata202">
    <rdf:RDF>
      <cc:Work
         rdf:about="">
        <dc:format>image/svg+xml</dc:format>
        <dc:type
           rdf:resource="http://purl.org/dc/dcmitype/StillImage" />
        <dc:title />
      </cc:Work>
    </rdf:RDF>
  </metadata>
  <g
     inkscape:label="图层 1"
     inkscape:groupmode="layer"
     id="layer1">
    <g
       id="g461"
       inkscape:export-xdpi="96"
       inkscape:export-ydpi="96">
      <ellipse
         style="fill:#ffff00;fill-opacity:1;stroke-width:0.248294"
         id="path14105"
         cx="263.77896"
         cy="259.78064"
         rx="165.43983"
         ry="174.79427" />
      <path
         style="fill:#f8c300;fill-opacity:1;stroke-width:0.377976"
         d="m 375.23859,378.09572 c -1.83515,-3.21503 -3.23236,-6.8625 -3.9406,-10.28719 -0.51554,-2.49296 -0.52356,-2.96701 -0.0593,-3.51517 0.29514,-0.34851 1.56162,-1.84304 2.81443,-3.32116 17.27546,-20.38268 29.24397,-45.78853 34.48835,-73.20925 3.07346,-16.0699 3.50467,-35.63733 1.15658,-52.48273 -4.01111,-28.77603 -15.44704,-55.35491 -33.55862,-77.99551 -4.56192,-5.70269 -17.13105,-18.28073 -22.42547,-22.44138 -10.99391,-8.63964 -21.25112,-14.91248 -32.45993,-19.85104 -5.59469,-2.465 -15.46749,-5.99502 -20.22173,-7.23028 -1.45521,-0.3781 -2.696,-0.72292 -2.75733,-0.76628 -0.0613,-0.0434 -0.51552,-2.26719 -1.00931,-4.94186 l -0.89786,-4.863031 3.62564,-3.402766 c 2.60223,-2.442284 3.84733,-3.365995 4.4111,-3.272497 1.74763,0.289833 14.79593,4.720823 19.04413,6.467076 42.03025,17.276858 75.44207,51.715898 92.79009,95.642838 6.39209,16.18541 10.09271,31.62019 12.05291,50.27083 0.75184,7.15349 0.64047,28.13964 -0.18857,35.52977 -3.67282,32.74028 -14.72653,61.91345 -33.15954,87.5153 -1.95083,2.70952 -2.4891,3.19096 -4.98322,4.45691 -2.87758,1.46058 -7.25411,4.62701 -11.16155,8.07537 l -2.22406,1.96282 z"
         id="path14964" />
      <g
         id="g363">
        <ellipse
           style="fill:#d40000;stroke-width:0.264583"
           id="path239"
           cx="263.72482"
           cy="257.86923"
           rx="147.41072"
           ry="154.97025" />
        <g
           id="g14065"
           transform="translate(10.480803,-1.4224587)">
          <rect
             style="fill:#000000;stroke-width:0.427117"
             id="rect10"
             width="75.154274"
             height="8.8798523"
             x="140.51265"
             y="222.40837" />
          <rect
             style="fill:#000000;stroke-width:0.427117"
             id="rect10-0"
             width="70.742813"
             height="9.4335899"
             x="160.54538"
             y="-149.94624"
             transform="rotate(90)" />
          <rect
             style="fill:#000000;stroke-width:0.427117"
             id="rect10-9"
             width="75.154274"
             height="8.8798523"
             x="215.66692"
             y="222.40837" />
          <rect
             style="fill:#000000;stroke-width:0.427117"
             id="rect10-2"
             width="75.154274"
             height="8.8798523"
             x="290.82117"
             y="222.40837" />
          <rect
             style="fill:#000000;stroke-width:0.427117"
             id="rect10-0-2"
             width="70.742813"
             height="9.4335899"
             x="160.54539"
             y="-365.97543"
             transform="rotate(90)" />
          <rect
             style="fill:#000000;stroke-width:0.427117"
             id="rect10-0-2-7"
             width="70.742813"
             height="9.4335899"
             x="160.54539"
             y="-225.10052"
             transform="rotate(90)" />
          <rect
             style="fill:#000000;stroke-width:0.427117"
             id="rect10-9-8"
             width="75.154274"
             height="8.8798523"
             x="215.66695"
             y="160.54539" />
          <rect
             style="fill:#000000;stroke-width:0.427117"
             id="rect10-9-7"
             width="75.154274"
             height="8.8798523"
             x="290.82117"
             y="284.27133" />
          <rect
             style="fill:#000000;stroke-width:0.427117"
             id="rect10-0-2-7-4"
             width="70.742813"
             height="9.4335899"
             x="222.40837"
             y="-290.82117"
             transform="rotate(90)" />
          <rect
             style="fill:#000000;stroke-width:0.427117"
             id="rect10-0-2-7-1"
             width="70.742813"
             height="9.4335899"
             x="284.27133"
             y="-365.97543"
             transform="rotate(90)" />
          <rect
             style="fill:#000000;stroke-width:0.427117"
             id="rect10-0-2-7-9"
             width="70.742813"
             height="9.4335899"
             x="284.27133"
             y="-149.94623"
             transform="rotate(90)" />
          <rect
             style="fill:#000000;stroke-width:0.427117"
             id="rect10-9-7-6"
             width="75.154274"
             height="8.8798523"
             x="215.66692"
             y="284.27133" />
          <rect
             style="fill:#000000;stroke-width:0.427117"
             id="rect10-9-7-2"
             width="75.154274"
             height="8.8798523"
             x="140.51265"
             y="284.27133" />
          <rect
             style="fill:#000000;stroke-width:0.427117"
             id="rect10-0-2-7-9-6"
             width="70.742813"
             height="9.4335899"
             x="284.27133"
             y="-290.82117"
             transform="rotate(90)" />
        </g>
        <g
           id="g14960">
          <g
             id="g14716"
             transform="matrix(1.3609113,0,0,1.306507,-131.4907,31.178477)">
            <path
               d="M 293.50009,-4.5278112e-6 306.34432,26.025249 l 28.72057,4.173345 -20.7824,20.257833 4.90606,28.604522 -25.68846,-13.505223 -25.68846,13.505222 4.90605,-28.604521 -20.78239,-20.257836 28.72056,-4.173342 z"
               fill="#f8c300"
               id="path9137"
               style="stroke-width:1.45427" />
            <g
               id="g14701">
              <path
                 d="m 293.50009,8.3370669 10.39402,21.0605991 23.24175,3.377225 -16.81789,16.39339 3.97017,23.147839 -20.78805,-10.928927 -20.78806,10.928926 3.97016,-23.147838 -16.81788,-16.393392 23.24174,-3.377223 z"
                 fill="#d40000"
                 id="path9139"
                 style="stroke-width:1.17685" />
            </g>
          </g>
          <g
             id="g14796"
             transform="translate(7.6290385,-21.725752)">
            <g
               transform="matrix(0.288842,-0.26169077,0.26169077,0.288842,-222.1886,79.815947)"
               id="g8113">
              <path
                 d="m 848.79127,865.62328 h 54.5315 l 4.35827,-10.16929 h -61.08662 z"
                 fill="#f8c300"
                 id="path8067" />
              <path
                 d="m 846.59442,835.36344 v 20.09055 h 61.08662 l -17.43307,-20.09055 z"
                 fill="#f8c300"
                 id="path8069" />
              <g
                 stroke="#000000"
                 id="g8109">
                <g
                   fill="none"
                   id="g8101">
                  <g
                     stroke-linecap="round"
                     stroke-width="0.668853"
                     id="g8093">
                    <path
                       d="m 846.62986,837.84375 h 11.65748"
                       id="path8071" />
                    <path
                       d="m 846.62986,840.00517 h 12.5433"
                       id="path8073" />
                    <path
                       d="m 846.62986,842.16659 h 13.2874"
                       id="path8075" />
                    <path
                       d="m 846.62986,844.32801 h 14.70472"
                       id="path8077" />
                    <path
                       d="m 846.62986,846.48942 h 16.01575"
                       id="path8079" />
                    <path
                       d="M 846.62986,848.65084 H 863.6023"
                       id="path8081" />
                    <path
                       d="m 846.62986,850.81226 h 18.74409"
                       id="path8083" />
                    <path
                       d="m 846.62986,852.97368 h 20.90551"
                       id="path8085" />
                    <path
                       d="M 906.39099,858.24699 H 887.50516"
                       id="path8087" />
                    <path
                       d="M 905.39886,860.58557 H 886.93823"
                       id="path8089" />
                    <path
                       d="M 904.40673,862.92416 H 886.3713"
                       id="path8091" />
                  </g>
                  <g
                     stroke-width="1.06299"
                     id="g8099">
                    <path
                       d="m 846.62986,835.36344 v 20.09055 l 2.16141,10.16929 h 54.5315 l 4.35827,-10.16929 -17.43307,-20.09055 z"
                       id="path8095" />
                    <path
                       d="m 846.62986,855.45399 h 61.05118"
                       id="path8097" />
                  </g>
                </g>
                <g
                   fill="#f8c300"
                   id="g8107">
                  <path
                     d="m 869.87395,861.86738 c 0,0 0.46063,-1.94882 4.96063,-1.94882 4.53543,0 4.96063,1.94882 4.96063,1.94882 l 1.27559,116.11417 h -12.47244 z"
                     stroke-width="1.06299"
                     id="path8103" />
                  <path
                     d="m 881.10623,978.51305 c 0,2.16141 -2.79921,3.89764 -6.27165,3.89764 -3.43701,0 -6.27165,-1.73623 -6.27165,-3.89764 0,-2.12599 2.83464,-3.86221 6.27165,-3.86221 3.47244,0 6.27165,1.73622 6.27165,3.86221 z"
                     stroke-width="1.02756"
                     id="path8105" />
                </g>
              </g>
              <path
                 d="m 877.45663,865.33982 c -0.0709,0.0354 -0.1063,0.0709 -0.14173,0.1063 -0.0709,0.1063 -0.14174,0.2126 -0.14174,0.35433 v 1.91338 l -3.08551,4.3124 c 0,0 2.66032,-3.39114 3.05008,-2.25728 0.0354,0.1063 0.0354,0.17717 0.0354,0.28347 v 2.01968 l -3.08551,4.3124 c 0,0 2.66032,-3.39114 3.05008,-2.25728 0.0354,0.1063 0.0354,0.17717 0.0354,0.28346 v 2.01969 l -3.08551,4.3124 c 0,0 3.08551,-3.74547 3.08551,-1.97382 v 2.01969 l -3.08551,4.31239 c 0,0 3.08551,-3.74546 3.08551,-1.97381 v 2.01968 l -3.08551,4.3124 c 0,0 3.08551,-3.74547 3.08551,-1.97381 v 2.01968 l -3.08551,4.3124 c 0,0 3.08551,-3.74547 3.08551,-1.97382 v 2.01969 l -3.08551,4.3124 c 0,0 3.08551,-3.74547 3.08551,-1.97382 v 2.01969 l -3.08551,4.3124 c 0,0 3.08551,-3.74547 3.08551,-1.97382 v 2.01968 l -3.08551,4.3124 c 0,0 3.08551,-3.74546 3.08551,-1.97381 v 2.01968 l -3.08551,4.3124 c 0,0 3.08551,-3.74547 3.08551,-1.97381 v 2.01968 l -3.08551,4.3124 c 0,0 3.08551,-3.74547 3.08551,-1.97382 v 2.01969 l -3.08551,4.3124 c 0,0 3.08551,-3.74547 3.08551,-1.97382 v 2.01969 l -3.08551,4.31239 c 0,0 3.08551,-3.74546 3.08551,-1.97381 v 2.01968 l -3.08551,4.3124 c 0,0 3.08551,-3.74547 3.08551,-1.97381 v 2.01968 l -3.08551,4.3124 c 0,0 3.08551,-3.74547 3.08551,-1.97381 v 2.01968 l -3.08551,4.3124 c 0,0 3.08551,-3.74547 3.08551,-1.97382 v 2.01969 l -3.08551,4.3124 c 0,0 3.08551,-3.74547 3.08551,-1.97382 v 2.01969 l -3.08551,4.31239 c 0,0 3.08551,-3.74547 3.08551,-1.97381 v 2.01968 l -3.08551,4.3124 c 0,0 3.08551,-3.74547 3.08551,-1.97381 v 2.01968 l -3.08551,4.3124 c 0,0 3.08551,-3.74547 3.08551,-1.97382 v 2.01969 l -3.08551,4.3124 c 0,0 3.08551,-3.74547 3.08551,-1.97382 v 2.01969 l -3.08551,4.31239 c 0,0 3.08551,-3.74546 3.08551,-1.97381 v 0.56693 1.45275 l -3.08551,4.3124 c 0,0 3.08551,-3.74547 3.08551,-1.97381 v 1.91338 1.77166 c 0,0.42519 0.7441,0.42519 0.7441,0 v -1.77166 -5.70472 -96.34252 c 0.0354,-0.24803 -0.17717,-0.46063 -0.38977,-0.46063 -0.0354,0 -0.0354,0 -0.0709,0 z"
                 id="path8111" />
            </g>
            <g
               id="g12677"
               transform="translate(9.3135911,-7.3750991)">
              <g
                 stroke="#000000"
                 transform="matrix(0.38547656,0.30177859,-0.35669596,0.32612809,424.82098,-312.2289)"
                 id="g8133">
                <g
                   fill="#ffcc00"
                   id="g8125">
                  <path
                     d="m 386.60001,871.0014 c -11.23188,-0.0944 -22.15501,1.80596 -32.78493,5.73903 0,0 12.80298,0.39856 16.09825,1.74506 -0.21259,-0.7441 -0.21259,-1.09843 -0.21259,-1.09843 l 3.15354,1.09843 -0.24803,-1.20473 2.79921,1.13386 -0.17717,-1.38189 3.25985,1.31102 -0.2126,-1.20472 3.25984,1.38189 -0.1063,-1.34646 3.47244,1.55906 -0.1063,-1.27559 3.64961,1.55905 -0.0709,-1.09842 3.8622,1.59449 0.0354,-1.1693 3.61418,1.84252 0.14173,-1.31102 3.93307,2.23228 0.17716,-1.16929 3.68504,2.40945 0.28347,-1.38189 3.89764,2.79922 0.21259,-1.66536 3.79134,3.57874 0.49607,-1.52362 3.22441,3.47244 0.46063,-1.48819 3.04724,3.64961 0.70866,-1.41733 2.65748,3.68504 0.81496,-1.45275 2.30315,4.1811 0.99213,-1.48819 2.19685,4.5 1.06299,-1.34646 1.87795,4.35827 1.06299,-1.13386 1.70079,4.3937 1.24016,-1.20472 1.24016,4.64173 1.31102,-0.99212 1.06299,4.92519 1.73622,-0.70866 0.14173,4.67717 1.84252,-0.77953 -0.46063,4.5 1.80709,-0.3189 -0.67323,4.03937 1.73622,0.0354 -1.38189,3.57874 1.98426,-0.17716 -1.70079,4.1811 1.70079,0.0709 -2.16142,3.82677 2.01968,0.24803 -2.83464,3.54331 2.12598,0.24803 -3.68504,3.61417 1.87796,0.8504 -3.82678,2.58661 1.77166,1.16929 -4.53544,2.16142 1.52363,1.52362 -4.64174,1.31103 1.09843,1.77165 -4.6063,0.38976 0.67323,1.87796 -4.1811,-0.24804 0.60236,1.45276 -3.43701,-0.46063 0.35433,1.59449 -3.40157,-0.88583 0.17716,1.48819 -3.04724,-0.85039 v 0.99212 h -3.33071 c -1.77165,0 -3.29528,0 -3.29528,0 v -1.62992 c 0,-1.31102 -1.06299,-2.05512 -2.37401,-2.05512 h -0.81496 c -1.31103,0 -2.40945,0.7441 -2.40945,2.05512 v 1.52362 h -1.41732 c -0.92126,0 -1.62993,0.7441 -1.62993,1.62993 v 3.68503 c 0,0.92126 0.70867,1.62993 1.62993,1.62993 h 2.19685 v 2.90551 c 0,0 13.34584,3.17996 27.18732,0.28057 10.13651,-2.1233 27.43477,-10.69013 29.28787,-33.87076 1.58621,-19.84211 -9.84375,-35.15091 -23.10937,-46.61605 -14.28898,-12.3496 -36.34679,-17.13462 -53.38774,-17.27785 z"
                     stroke-linecap="round"
                     stroke-linejoin="round"
                     stroke-width="1.06299"
                     id="path8115" />
                  <g
                     stroke-width="1.09843"
                     id="g8123">
                    <path
                       d="m 405.16924,962.6036 h 2.65748 c 2.19685,0 3.9685,1.77165 3.9685,3.9685 v 1.13386 c 0,2.19685 -1.77165,3.9685 -3.9685,3.9685 h -2.65748 c -2.19685,0 -3.96851,-1.77165 -3.96851,-3.9685 v -1.13386 c 0,-2.19685 1.77166,-3.9685 3.96851,-3.9685 z"
                       stroke-linecap="round"
                       id="path8117" />
                    <path
                       d="m 406.5157,968.02486 c 0,0 -7.83071,0.0709 -6.34252,3.47244 1.20472,2.76378 1.52362,6.02362 1.31102,9.38976 -0.2126,3.36614 -0.60236,6.27166 -1.84252,9.35433 -9.60236,24.34251 6.87402,25.97241 6.87402,25.97241 0,0 16.44094,-1.6299 6.83858,-25.97241 -1.20473,-3.08267 -1.62992,-5.98819 -1.80709,-9.35433 -0.2126,-3.36614 0.0709,-6.62598 1.27559,-9.38976 1.48819,-3.40158 -6.30708,-3.47244 -6.30708,-3.47244 z"
                       id="path8119" />
                    <path
                       d="m 410.2716,1016.1075 c 0,1.3819 -1.70079,2.8347 -3.7559,2.8347 -2.09056,0 -3.79134,-1.4528 -3.79134,-2.8347 0,-1.3819 1.55905,-1.8425 3.79134,-1.8425 2.23228,0 3.7559,0.4606 3.7559,1.8425 z"
                       stroke-linecap="round"
                       id="path8121" />
                  </g>
                </g>
                <g
                   stroke-linecap="round"
                   id="g8131">
                  <path
                     d="m 404.07081,973.65872 c 0,0 1.16929,8.22047 -2.23228,17.7874 -3.36614,9.38978 -4.21654,12.40158 -1.20472,17.14958 -0.1063,-0.248 -0.24804,-0.6732 -0.4252,-1.2047 0.46063,-0.9213 1.73622,-1.9134 2.33858,-2.2677 -0.56693,0.2126 -1.94882,0.8858 -2.72835,0.6023 -0.0354,-0.4606 -0.10629,-0.9212 -0.10629,-1.4527 0.46063,-0.9921 2.09055,-2.1969 2.76378,-2.5158 -0.60237,0.1772 -1.94882,0.7796 -2.76378,0.6378 0,-0.4606 0.0354,-1.0275 0.10629,-1.559 0.4252,-0.95671 2.09056,-2.126 2.79922,-2.48033 -0.56693,0.17716 -1.70079,0.74409 -2.55118,0.74409 0.1063,-0.56693 0.24803,-1.13386 0.38976,-1.70079 0.60236,-0.99212 2.83465,-2.19685 3.50787,-2.51574 -0.60236,0.17716 -2.12598,0.77952 -3.01181,0.70866 0.14174,-0.46063 0.3189,-0.9567 0.49607,-1.45276 0.70866,-1.02756 2.83464,-2.40945 3.47244,-2.72834 -0.60237,0.17716 -1.94882,0.95669 -2.79922,0.88582 0.17717,-0.56693 0.38977,-1.13386 0.56693,-1.70079 0.7441,-1.16929 2.83465,-2.33858 3.50788,-2.65748 -0.60236,0.17717 -2.09055,0.92126 -2.97638,0.92126 0.14173,-0.46063 0.24803,-0.92126 0.35433,-1.38189 0.38976,-0.99212 2.05512,-2.23228 2.76378,-2.58661 -0.60236,0.17717 -1.59449,0.74409 -2.33858,0.6378 0.0709,-0.49607 0.14173,-0.9567 0.2126,-1.41733 0.38976,-0.95669 1.91338,-2.01968 2.58661,-2.37401 -0.56693,0.17716 -1.59449,0.63779 -2.37402,0.46063 0.0709,-0.56693 0.14174,-1.13386 0.14174,-1.62992 0.49606,-0.92126 1.73622,-1.91339 2.37401,-2.23229 -0.63779,0.17717 -1.62992,0.70866 -2.37401,0.4252 0,-0.4252 0,-0.77953 -0.0354,-1.16929 0.46063,-0.9567 1.66535,-2.01969 2.33858,-2.37402 -0.67323,0.2126 -1.77165,0.77953 -2.48032,0.38977 -0.17716,-1.24016 -0.31889,-1.94882 -0.31889,-1.94882 z"
                     stroke-linejoin="round"
                     stroke-width="0.248032"
                     id="path8127" />
                  <path
                     d="m 366.29916,875.26108 c 0,0 12.38323,-3.52751 35.14388,-0.26312 33.69554,4.8327 50.60318,27.86904 55.2363,42.06142 6.14125,18.8122 1.57458,34.36286 -12.0935,43.57352 -9.4384,6.36037 -27.22763,6.50613 -27.22763,6.50613"
                     fill="none"
                     stroke-width="0.67139"
                     id="path8129" />
                </g>
              </g>
            </g>
          </g>
        </g>
        <path
           style="fill:#f8c300;fill-opacity:1;stroke-width:0.377976"
           d="m 161.93704,378.34842 c -5.87631,-5.36548 -12.17553,-9.1377 -17.57589,-10.52515 -1.35127,-0.34716 -4.42475,-0.7252 -6.82995,-0.84005 l -4.37311,-0.20887 -2.5836,-3.74962 C 115.7392,341.49408 105.72962,317.04671 101.27602,291.46627 98.309556,274.42755 97.814819,253.72396 99.970872,236.8487 106.7794,183.55893 136.05453,136.88168 179.89906,109.40851 c 14.48468,-9.07616 32.27126,-16.491626 48.25351,-20.117536 l 2.33754,-0.530323 4.48698,4.173918 4.48698,4.173916 -0.55344,3.373455 c -0.52451,3.19708 -0.62405,3.42144 -1.90408,4.29124 -0.74286,0.50478 -1.59486,0.91779 -1.89334,0.91779 -1.04322,0 -11.01788,2.65934 -15.43076,4.11399 -26.07038,8.59378 -49.49852,24.67465 -67.24567,46.15684 -14.74102,17.84338 -25.24775,38.5254 -31.10673,61.23214 -8.65595,33.54655 -6.36994,69.16259 6.48963,101.10862 8.1273,20.19003 20.78466,39.14285 35.8158,53.62977 l 3.4851,3.35891 -0.81728,1.74376 c -0.4495,0.95906 -1.10553,2.11283 -1.45784,2.56395 l -0.64056,0.82018 z"
           id="path14966" />
      </g>
      <g
         id="g380">
        <g
           transform="matrix(1.9709148,0,0,2.1237659,217.86546,-1245.0499)"
           id="g7983">
          <path
             d="m -59.90625,766.03125 c 2.142857,1.25 -1.517857,14.10268 -1.875,14.28125 -3.393762,8.9472 -2.527977,10.83506 -1.1875,13.53125 -0.464325,-0.97645 -0.75,-2.10925 -0.75,-3.40625 0,-2.66416 1.360045,-4.8339 3.34375,-6.28125 1.983705,-1.44735 4.567615,-2.26414 7.375,-2.5625 5.61477,-0.59671 12.083927,0.8456 15.96875,4.5 5.513181,5.18618 11.553225,9.17919 17.59375,10.09375 2.957889,0.44784 6.307435,-0.11823 8.5625,-1.46875 1.1275326,-0.67526 1.9648798,-1.51348 2.4375,-2.5 0.4726202,-0.98652 0.6107366,-2.14205 0.21875,-3.5625 -0.6373971,-2.30975 -2.244197,-3.6573 -4.6875,-4.375 -2.443303,-0.71775 -5.701568,-0.68362 -9.15625,0.0937 -2.993488,0.6736 -6.240141,0.90027 -8.90625,0.3125 -1.333055,-0.29388 -2.551768,-0.79765 -3.46875,-1.625 -0.916982,-0.82735 -1.5,-2.02732 -1.5,-3.40625 0,-1.43677 0.75369,-2.79037 2,-3.71875 1.24631,-0.92838 2.962445,-1.5023 5.15625,-1.75 1.096903,-0.1238 2.320025,-0.15165 3.65625,-0.0937 4.008675,0.17377 9.101397,1.1911 15.28125,3.40625 2.6963108,0.96649 5.3768656,1.79153 8,2.5 l 2.5625,-6.5625 c 0,0 -4.7011473,-1.80475 -13.75,-1.15625 -12.43318,0.89104 -14.756493,-13.11907 -28.53125,-13.11907 -6.942998,0 -12.470528,3.06049 -18.34375,6.86907 z"
             fill="url(#G)"
             stroke="#ff0000"
             stroke-width="0.25"
             id="path7977"
             style="fill:url(#linearGradient13967)" />
          <path
             d="m -50.84375,743.46875 c -0.659288,0.006 -1.300094,0.0573 -1.9375,0.125 -2.549625,0.27096 -4.84898,1.02848 -6.4375,2.1875 -1.58852,1.15902 -2.5,2.62636 -2.5,4.65625 0,2.74754 1.368085,4.24802 3.1875,5.25 0.227427,0.12525 0.447623,0.23851 0.6875,0.34375 0.239877,0.10524 0.503218,0.19478 0.75,0.28125 1.480689,0.51883 3.031969,0.71875 4.0625,0.71875 6.508685,0 12.456449,-1.89656 15.125,-2.875 L -38.78125,753 -40.25,751.0625 l 2.3125,-0.78125 1.875,-0.625 c -0.791406,-0.67188 -1.577849,-1.37328 -2.34375,-2.09375 -2.838239,-2.6699 -7.822482,-4.13575 -12.4375,-4.09375 z"
             fill="url(#H)"
             stroke="#780000"
             stroke-width="0.15"
             transform="translate(0,40)"
             id="path7979"
             style="fill:url(#linearGradient13969)" />
          <path
             d="m -27,776.09375 c -0.555786,0.0154 -1.074039,0.0386 -1.5625,0.0937 -1.953846,0.2206 -3.341156,0.74456 -4.1875,1.375 -0.846344,0.63044 -1.1875,1.2834 -1.1875,2.09375 0,0.86818 0.289518,1.40619 0.84375,1.90625 0.554232,0.50006 1.422611,0.91184 2.53125,1.15625 2.217279,0.48882 5.295082,0.34147 8.0625,-0.28125 3.692348,-0.8308 7.241534,-0.94992 10.15625,-0.0937 2.914716,0.85617 5.2369706,2.78977 6.0625,5.78125 0.2353859,0.85298 0.3237013,1.68507 0.28125,2.46875 l 3.40625,-8.71875 c -2.5997531,-0.70725 -5.2664101,-1.5113 -7.9375,-2.46875 -7.043351,-2.52467 -12.578245,-3.42036 -16.46875,-3.3125 z"
             fill="url(#I)"
             stroke="#ff0000"
             stroke-width="0.25"
             id="path7981"
             style="fill:url(#linearGradient13971)" />
        </g>
        <g
           stroke="#ff0000"
           stroke-width="0.25"
           transform="matrix(-1.9709148,0,0,2.1237659,323.08805,-1245.0499)"
           id="g7989">
          <path
             d="m -59.90625,766.03125 c 2.142857,1.25 -1.517857,14.10268 -1.875,14.28125 -3.393762,8.9472 -2.527977,10.83506 -1.1875,13.53125 -0.464325,-0.97645 -0.75,-2.10925 -0.75,-3.40625 0,-2.66416 1.360045,-4.8339 3.34375,-6.28125 1.983705,-1.44735 4.567615,-2.26414 7.375,-2.5625 5.61477,-0.59671 12.083927,0.8456 15.96875,4.5 5.513181,5.18618 11.553225,9.17919 17.59375,10.09375 2.957889,0.44784 6.307435,-0.11823 8.5625,-1.46875 1.1275326,-0.67526 1.9648798,-1.51348 2.4375,-2.5 0.4726202,-0.98652 0.6107366,-2.14205 0.21875,-3.5625 -0.6373971,-2.30975 -2.244197,-3.6573 -4.6875,-4.375 -2.443303,-0.71775 -5.701568,-0.68362 -9.15625,0.0937 -2.993488,0.6736 -6.240141,0.90027 -8.90625,0.3125 -1.333055,-0.29388 -2.551768,-0.79765 -3.46875,-1.625 -0.916982,-0.82735 -1.5,-2.02732 -1.5,-3.40625 0,-1.43677 0.75369,-2.79037 2,-3.71875 1.24631,-0.92838 2.962445,-1.5023 5.15625,-1.75 1.096903,-0.1238 2.320025,-0.15165 3.65625,-0.0937 4.008675,0.17377 9.101397,1.1911 15.28125,3.40625 2.6963108,0.96649 5.3768656,1.79153 8,2.5 l 2.5625,-6.5625 c 0,0 -4.7011473,-1.80475 -13.75,-1.15625 -12.43318,0.89104 -14.756493,-13.11907 -28.53125,-13.11907 -6.942998,0 -12.470528,3.06049 -18.34375,6.86907 z"
             fill="url(#G)"
             id="path7985"
             style="fill:url(#linearGradient9241)" />
          <path
             d="m -27,776.09375 c -0.555786,0.0154 -1.074039,0.0386 -1.5625,0.0937 -1.953846,0.2206 -3.341156,0.74456 -4.1875,1.375 -0.846344,0.63044 -1.1875,1.2834 -1.1875,2.09375 0,0.86818 0.289518,1.40619 0.84375,1.90625 0.554232,0.50006 1.422611,0.91184 2.53125,1.15625 2.217279,0.48882 5.295082,0.34147 8.0625,-0.28125 3.692348,-0.8308 7.241534,-0.94992 10.15625,-0.0937 2.914716,0.85617 5.2369706,2.78977 6.0625,5.78125 0.2353859,0.85298 0.3237013,1.68507 0.28125,2.46875 l 3.40625,-8.71875 c -2.5997531,-0.70725 -5.2664101,-1.5113 -7.9375,-2.46875 -7.043351,-2.52467 -12.578245,-3.42036 -16.46875,-3.3125 z"
             fill="url(#I)"
             id="path7987"
             style="fill:url(#linearGradient9245)" />
        </g>
        <path
           d="m 206.3208,343.78979 c -17.60043,0 -36.2783,12.5191 -36.2783,12.5191 0,0 2.69215,10.20471 -4.29365,22.24137 -7.26819,12.52316 -17.05018,20.86228 -17.05018,29.63295 25.83275,-20.03782 54.45245,15.58226 121.77808,15.58226 67.32564,0 95.94534,-35.62008 121.77809,-15.58226 0,-8.77067 -9.78199,-17.10979 -17.05018,-29.63295 -6.9858,-12.03666 -4.29365,-22.24137 -4.29365,-22.24137 0,0 -18.67787,-12.5191 -36.2783,-12.5191 -17.57665,0.0735 -21.0503,7.43087 -64.15565,7.43087 -43.10535,0 -46.57961,-7.3573 -64.15626,-7.43087 z"
           fill="url(#J)"
           id="path7991"
           style="fill:url(#J-2);stroke-width:2.04591" />
        <path
           d="m 206.34793,347.17724 c -15.0982,0 -30.79474,9.70634 -33.07442,11.14977 0.50764,3.3711 1.26559,11.46976 -4.86569,22.03408 -3.80412,6.55453 -8.14246,11.86881 -11.39435,16.45918 -1.14535,1.61676 -1.92221,2.97083 -2.71001,4.38027 4.85255,-2.02971 9.8366,-2.75775 15.02822,-2.38924 7.88881,0.55995 16.19068,3.22454 25.6219,6.43767 17.46244,5.9493 38.9153,13.85876 68.30451,14.99909 v -65.704 c -17.23379,-0.36947 -27.45458,-2.0543 -35.04533,-3.71659 -8.59654,-1.88255 -13.48087,-3.61514 -21.86483,-3.65023 z"
           fill="url(#K)"
           id="path7993"
           style="fill:url(#K-1);stroke-width:2.04591" />
        <path
           d="m 330.34207,347.17724 c 17.09536,0 34.86822,9.70634 37.44944,11.14977 -0.57478,3.3711 -1.43299,11.46976 5.50932,22.03408 4.30731,6.55453 9.21953,11.86881 12.90158,16.45918 1.29685,1.61676 2.17647,2.97083 3.06848,4.38027 -5.49443,-2.02971 -11.13778,-2.75775 -17.01614,-2.38924 -8.93231,0.55995 -18.33234,3.22454 -29.0111,6.43767 -19.77235,5.9493 -44.06295,13.85876 -77.33971,14.99909 v -65.704 c 19.51343,-0.36947 31.08623,-2.0543 39.68106,-3.71659 9.73368,-1.88255 15.2641,-3.61514 24.75707,-3.65023 z"
           fill="url(#M)"
           id="path7995"
           style="fill:url(#M-4);stroke-width:2.17703" />
        <path
           d="m 164.58917,398.87763 c -1.2021,0.0318 -2.36815,0.13379 -3.4491,0.26547 -4.32379,0.52606 -7.70616,1.74488 -10.16253,3.71659 -2.45637,1.9717 -3.94183,4.84643 -3.94183,7.89786 0,2.92846 1.14909,5.47698 2.95638,7.23397 1.80729,1.7572 4.20928,2.82695 6.83661,3.45112 5.25467,1.24835 11.65354,0.76689 17.55346,-0.66368 6.80888,-1.65101 13.23065,-1.72343 18.04619,-0.19963 4.81553,1.52423 7.9824,4.38621 9.23866,9.29148 0.77258,3.0168 0.50035,5.47082 -0.43114,7.56591 -0.93149,2.0951 -2.58184,3.87524 -4.8041,5.30942 -4.44454,2.86814 -11.04621,4.07041 -16.87596,3.11938 -11.90535,-1.94239 -23.80978,-10.42259 -34.67578,-21.43686 -7.65665,-7.7611 -20.40682,-10.8242 -31.47305,-9.55695 -5.53311,0.63373 -10.62577,2.36842 -14.535497,5.44215 -3.909703,3.07394 -6.590246,7.68187 -6.590246,13.34001 0,7.34526 3.873892,12.23098 8.314793,14.86636 4.44093,2.63517 9.44565,3.38465 12.74936,3.38465 14.99568,0 27.92167,-4.95539 32.33532,-6.83577 l -2.52523,-3.51759 c -5.25949,2.07789 -16.98202,6.10582 -29.81009,6.10582 -2.70812,0 -7.25411,-0.7259 -10.84003,-2.8537 -3.585905,-2.12801 -6.282293,-5.31472 -6.282293,-11.14977 0,-4.31103 1.796449,-7.42745 4.927283,-9.88889 3.13084,-2.46145 7.66268,-4.0702 12.68777,-4.64574 10.05018,-1.15087 21.93884,1.94834 28.3319,8.4288 11.16629,11.31861 23.58536,20.34759 36.76988,22.49854 6.7152,1.09565 14.00086,-0.1253 19.46278,-3.65012 2.73096,-1.76251 5.06697,-4.15727 6.40547,-7.16771 1.33851,-3.01065 1.66722,-6.62168 0.67751,-10.48609 -1.62705,-6.35324 -6.20401,-10.45976 -11.94868,-12.27813 -5.74464,-1.81837 -12.73979,-1.56521 -20.0171,0.19964 -5.45435,1.32247 -11.52043,1.63551 -15.8905,0.59741 -2.18503,-0.51926 -3.89654,-1.39361 -4.98888,-2.45571 -1.09234,-1.06209 -1.66296,-2.20468 -1.66296,-4.04832 0,-1.7211 0.6724,-3.10792 2.34046,-4.44674 1.66809,-1.33882 4.40236,-2.45168 8.25321,-2.92018 7.70172,-0.93701 19.6731,0.70806 35.53806,6.83598 37.18745,14.36345 73.35498,14.46815 73.35498,14.46815 0,0 36.16753,-0.10406 73.35499,-14.46815 15.86498,-6.12792 27.83633,-7.77299 35.53806,-6.83598 3.85087,0.4685 6.58514,1.58136 8.2532,2.92018 1.66809,1.33882 2.34046,2.72564 2.34046,4.44674 0,1.84364 -0.57062,2.98623 -1.66296,4.04832 -1.09234,1.0621 -2.80384,1.93645 -4.98887,2.45571 -4.37007,1.0381 -10.43616,0.72506 -15.89051,-0.59741 -7.2773,-1.76422 -14.27243,-2.01737 -20.0171,-0.19964 -5.74464,1.81837 -10.32162,5.92489 -11.94867,12.27813 -0.98971,3.86441 -0.661,7.47544 0.6775,10.48609 1.33851,3.01044 3.67452,5.4052 6.40548,7.16771 5.46191,3.52461 12.7476,4.74577 19.46278,3.65012 13.18453,-2.15095 25.60358,-11.17993 36.76988,-22.49854 6.39305,-6.48046 18.28171,-9.57967 28.3319,-8.4288 5.0251,0.57554 9.55693,2.18429 12.68776,4.64574 3.13084,2.46144 4.92729,5.57786 4.92729,9.88889 0,5.83505 -2.69637,9.02176 -6.28229,11.14977 -3.5859,2.1278 -8.13192,2.8537 -10.84003,2.8537 -12.82806,0 -24.5506,-4.02793 -29.81009,-6.10582 l -2.52523,3.51738 c 4.41366,1.88059 17.33965,6.83598 32.33532,6.83598 3.3037,0 8.30843,-0.74948 12.74935,-3.38486 4.44093,-2.63538 8.3148,-7.52089 8.3148,-14.86636 0,-5.65814 -2.68052,-10.26608 -6.59025,-13.3398 -3.9097,-3.07394 -9.00237,-4.80863 -14.53549,-5.44215 -11.06624,-1.26747 -23.8164,1.79585 -31.47305,9.55695 -10.86601,11.01406 -22.77041,19.49425 -34.67578,21.43665 -5.82975,0.95102 -12.43141,-0.25103 -16.87596,-3.11917 -2.22227,-1.43418 -3.87261,-3.21432 -4.8041,-5.30942 -0.9315,-2.09531 -1.20372,-4.54932 -0.43114,-7.56591 1.25626,-4.90548 4.42312,-7.76725 9.23866,-9.29148 4.81554,-1.52444 11.23731,-1.45202 18.04619,0.19963 5.89991,1.43057 12.29878,1.91182 17.55346,0.66368 2.62735,-0.62417 5.02932,-1.69413 6.83661,-3.45112 1.80729,-1.7572 2.95637,-4.30572 2.95637,-7.23418 0,-3.05143 -1.48546,-5.92616 -3.94183,-7.89765 -2.45637,-1.97171 -5.83871,-3.19053 -10.16253,-3.71659 -1.08094,-0.13168 -2.247,-0.23319 -3.4491,-0.26547 -1.2021,-0.0319 -2.44027,0 -3.75705,0.0658 -7.90075,0.3689 -17.93809,2.52962 -30.11805,7.23398 -36.42814,14.07016 -71.99998,14.26915 -71.99998,14.26915 0,0 -35.57182,-0.19963 -71.99998,-14.26915 -12.17996,-4.70436 -22.21727,-6.86508 -30.11804,-7.23398 -1.31679,-0.0616 -2.55496,-0.0977 -3.75706,-0.0658 z"
           fill="url(#N)"
           id="path7999"
           style="fill:url(#N-3);stroke-width:2.04591" />
        <path
           d="m 423.29675,418.85428 c 1.2994,0.0127 2.56237,0.12169 3.81865,0.26547 5.02509,0.57546 9.55692,2.18425 12.68776,4.64574 3.13084,2.46148 4.92729,5.57777 4.92729,9.88878 0,5.83513 -2.69638,9.0218 -6.28229,11.14977 -0.44824,0.26601 -0.88223,0.50654 -1.35501,0.73005 -0.47277,0.2235 -0.9918,0.41367 -1.47818,0.59731 -2.91832,1.10187 -5.97576,1.52645 -8.00684,1.52645 -12.82807,0 -24.5506,-4.02785 -29.81009,-6.10582 l 1.72455,-2.45561 2.89478,-4.11479 -4.55774,-1.6592 -3.69547,-1.32735 c 1.5598,-1.42692 3.10981,-2.91652 4.61934,-4.44663 5.59392,-5.67025 15.41744,-8.78337 24.51325,-8.69417 z"
           fill="url(#H)"
           stroke="#780000"
           stroke-width="0.306887"
           id="path8001"
           style="fill:url(#linearGradient9243)" />
        <g
           id="g284">
          <text
             xml:space="preserve"
             style="font-style:normal;font-variant:normal;font-weight:300;font-stretch:normal;font-size:10.3766px;line-height:1.25;font-family:'Adobe Ming Std';-inkscape-font-specification:'Adobe Ming Std Light';fill:#eeee00;fill-opacity:1;stroke:none;stroke-width:0.259415"
             x="231.45981"
             y="296.74799"
             id="text13975"
             transform="scale(0.78891606,1.267562)"><tspan
               sodipodi:role="line"
               id="tspan13973"
               x="231.45981"
               y="296.74799"
               style="font-style:normal;font-variant:normal;font-weight:normal;font-stretch:normal;font-family:Consolas;-inkscape-font-specification:Consolas;fill:#eeee00;fill-opacity:1;stroke-width:0.259415">Eqjoia Ezousaleoelaleesz Bjouakria Pjoazю</tspan><tspan
               sodipodi:role="line"
               x="231.45981"
               y="311.14371"
               style="font-style:normal;font-variant:normal;font-weight:normal;font-stretch:normal;font-family:Consolas;-inkscape-font-specification:Consolas;fill:#eeee00;fill-opacity:1;stroke-width:0.259415"
               id="tspan13977">  Eqjoia Ezousaleoelaleesz Aipjvβelales</tspan></text>
        </g>
        <path
           style="fill:#f8c300;fill-opacity:1;stroke-width:0.377976"
           d="m 254.91918,434.12433 c -9.98098,-0.59647 -19.43411,-2.05263 -29.09431,-4.48164 -7.756,-1.95022 -15.69492,-4.51377 -15.69937,-5.06947 -0.003,-0.40513 2.64009,-8.19468 2.89138,-8.52054 0.0618,-0.0801 3.2218,0.63693 7.02222,1.59351 17.62725,4.43672 36.339,7.05847 50.35345,7.05514 14.14793,-0.003 34.48666,-2.86179 51.16441,-7.19071 3.181,-0.82566 5.92897,-1.5012 6.10658,-1.5012 0.28443,0 1.52797,3.09796 1.52797,3.80656 0,0.46448 -7.50366,3.58199 -13.99921,5.81618 -14.36042,4.93935 -27.90648,7.60423 -43.26419,8.51128 -7.09065,0.41878 -9.73141,0.41581 -17.00893,-0.019 z"
           id="path14968" />
      </g>
    </g>
  </g>
</svg>
