<?xml version="1.0" encoding="UTF-8" standalone="no"?>
<svg
   id="svg10"
   height="600"
   width="1200"
   version="1.1"
   sodipodi:docname="Haer SSR.svg"
   inkscape:version="1.1 (c68e22c387, 2021-05-23)"
   inkscape:export-filename="E:\CCCP\Haer SSR\Haer SSR.png"
   inkscape:export-xdpi="327.67999"
   inkscape:export-ydpi="327.67999"
   xmlns:inkscape="http://www.inkscape.org/namespaces/inkscape"
   xmlns:sodipodi="http://sodipodi.sourceforge.net/DTD/sodipodi-0.dtd"
   xmlns="http://www.w3.org/2000/svg"
   xmlns:svg="http://www.w3.org/2000/svg"
   xmlns:rdf="http://www.w3.org/1999/02/22-rdf-syntax-ns#"
   xmlns:cc="http://creativecommons.org/ns#"
   xmlns:dc="http://purl.org/dc/elements/1.1/">
  <sodipodi:namedview
     id="namedview12"
     pagecolor="#505050"
     bordercolor="#ffffff"
     borderopacity="1"
     inkscape:pageshadow="0"
     inkscape:pageopacity="0"
     inkscape:pagecheckerboard="1"
     showgrid="true"
     inkscape:zoom="1.2308333"
     inkscape:cx="773.86594"
     inkscape:cy="299.79689"
     inkscape:window-width="2160"
     inkscape:window-height="1334"
     inkscape:window-x="-11"
     inkscape:window-y="-11"
     inkscape:window-maximized="1"
     inkscape:current-layer="svg10">
    <inkscape:grid
       type="xygrid"
       id="grid14" />
  </sodipodi:namedview>
  <metadata
     id="metadata16">
    <rdf:RDF>
      <cc:Work
         rdf:about="">
        <dc:format>image/svg+xml</dc:format>
        <dc:type
           rdf:resource="http://purl.org/dc/dcmitype/StillImage" />
        <dc:title />
      </cc:Work>
    </rdf:RDF>
  </metadata>
  <defs
     id="defs14" />
  <path
     d="M 0,1.2000001e-6 H 1200 V 600 H 0 Z"
     id="path2"
     style="fill:#cc0000;fill-opacity:1" />
  <g
     id="g11133"
     transform="translate(0,-58)">
    <path
       id="path11728"
       d="M 264.0005,63.500001 255.58117,89.41189 H 228.336 l 22.04177,16.01423 -8.41933,25.91188 22.04206,-16.01453 22.04207,16.01453 -8.41933,-25.91188 22.04176,-16.01423 h -27.24516 z m 0,13.499987 5.38828,16.583472 h 17.43718 l -14.107,10.2495 5.38827,16.58347 -14.10673,-10.24921 -14.10672,10.24921 5.38827,-16.58347 -14.10701,-10.2495 h 17.43718 z"
       style="fill:#ffd700;fill-opacity:1;stroke:none;stroke-width:0.15px;stroke-linecap:butt;stroke-linejoin:miter;stroke-opacity:1" />
    <g
       style="fill:#ffd700;fill-opacity:1"
       id="g2900"
       transform="matrix(0.98931879,0,0,0.98673811,67.82977,29.765941)">
      <path
         id="rect4165-6"
         d="m 137.43744,171.69421 18.86296,18.9937 17.78834,-17.66589 c 27.05847,29.021 55.43807,56.99501 82.28704,86.12782 4.03444,4.06233 10.59815,4.085 14.66056,0.0506 4.06232,-4.03445 4.08499,-10.59815 0.0506,-14.66056 -28.81871,-27.1901 -57.72545,-54.60143 -86.55328,-81.89095 l 23.96499,-23.80003 -33.34026,-4.61605 z"
         style="fill:#ffd700;fill-opacity:1;stroke:none;stroke-width:0.489191;stroke-miterlimit:4;stroke-dasharray:none;stroke-dashoffset:0;stroke-opacity:1" />
      <path
         id="path4179-3"
         d="m 198.2887,110.1955 c 15.51743,8.7394 27.29872,21.28122 34.2484,34.3924 7.04394,13.28902 10.13959,27.16218 10.20325,38.25433 0.13054,22.74374 -18.43771,41.18184 -41.18183,41.18184 -12.13597,0 -23.04607,-5.24868 -30.58302,-13.60085 l -4.16863,3.51033 c -0.70999,-0.27231 -1.46387,-0.41221 -2.22429,-0.41276 -1.82948,1.9e-4 -3.56621,0.80531 -4.74859,2.20136 -2.97368,0.38896 -5.46251,2.44529 -6.40534,5.29224 -3.13486,6.28843 -8.63524,11.21997 -15.29104,13.4776 -0.0637,0.0216 -0.11992,0.05 -0.1758,0.0783 -3.07749,1.12758 -6.16259,3.1643 -8.78919,5.80245 -5.19155,5.23656 -7.72858,11.93658 -6.30024,16.63822 -0.14098,0.40857 -0.21361,0.83759 -0.21498,1.26979 1.5e-4,2.17082 1.75991,3.93058 3.93073,3.93073 0.54341,-0.002 1.08053,-0.11639 1.57745,-0.33632 4.69369,1.05881 11.06885,-1.54582 16.05444,-6.55917 2.82624,-2.85072 4.94356,-6.22349 5.98303,-9.53062 2.31696,-6.62278 7.29699,-12.01856 13.62281,-15.05312 0.15105,-0.0725 0.27303,-0.14714 0.38218,-0.22358 2.12082,-1.01408 3.67251,-2.92895 4.225,-5.2139 9.70222,11.44481 24.25255,18.75299 40.51876,19.13577 29.83352,0.70205 52.13299,-21.25802 53.16414,-52.83642 0.51894,-15.89259 -5.62993,-36.3847 -19.6412,-53.19089 -10.70835,-12.84441 -26.40987,-23.50795 -44.18699,-28.20777 z"
         style="fill:#ffd700;fill-opacity:1;stroke:none;stroke-width:0.500035;stroke-miterlimit:4;stroke-dasharray:none;stroke-dashoffset:0;stroke-opacity:1" />
    </g>
  </g>
  <g
     id="g11255"
     transform="matrix(1,0,0,0.71428571,0,68.571429)">
    <rect
       style="fill:#3b93bf;fill-opacity:1;fill-rule:evenodd;stroke:none;stroke-width:0.0153388;stroke-miterlimit:4;stroke-dasharray:none;stroke-opacity:1"
       id="rect10532-8"
       width="1200"
       height="280"
       x="0"
       y="240" />
    <rect
       style="fill:#3b933b;fill-opacity:1;fill-rule:evenodd;stroke:none;stroke-width:0.0108798;stroke-miterlimit:4;stroke-dasharray:none;stroke-opacity:1"
       id="rect10532-8-2"
       width="1200"
       height="140.86955"
       x="0"
       y="379.1304" />
  </g>
</svg>
